<?xml version="1.0" encoding="UTF-8" standalone="no"?>
<svg
   xmlns:dc="http://purl.org/dc/elements/1.1/"
   xmlns:cc="http://creativecommons.org/ns#"
   xmlns:rdf="http://www.w3.org/1999/02/22-rdf-syntax-ns#"
   xmlns:svg="http://www.w3.org/2000/svg"
   xmlns="http://www.w3.org/2000/svg"
   xmlns:sodipodi="http://sodipodi.sourceforge.net/DTD/sodipodi-0.dtd"
   xmlns:inkscape="http://www.inkscape.org/namespaces/inkscape"
   version="1.1"
   width="354.28928"
   height="324.22845"
   id="svg24"
   viewBox="0 0 354.28928 324.22845"
   sodipodi:docname="IMSS.svg"
   inkscape:version="1.0.1 (3bc2e813f5, 2020-09-07)">
  <metadata
     id="metadata30">
    <rdf:RDF>
      <cc:Work
         rdf:about="">
        <dc:format>image/svg+xml</dc:format>
        <dc:type
           rdf:resource="http://purl.org/dc/dcmitype/StillImage" />
        <dc:title></dc:title>
      </cc:Work>
    </rdf:RDF>
  </metadata>
  <defs
     id="defs28" />
  <sodipodi:namedview
     pagecolor="#ffffff"
     bordercolor="#666666"
     borderopacity="1"
     objecttolerance="10"
     gridtolerance="10"
     guidetolerance="10"
     inkscape:pageopacity="0"
     inkscape:pageshadow="2"
     inkscape:window-width="1920"
     inkscape:window-height="1013"
     id="namedview26"
     showgrid="false"
     inkscape:zoom="1.0265152"
     inkscape:cx="177.58373"
     inkscape:cy="253.15061"
     inkscape:window-x="-9"
     inkscape:window-y="951"
     inkscape:window-maximized="1"
     inkscape:current-layer="svg24"
     fit-margin-top="0"
     fit-margin-left="0"
     fit-margin-right="0"
     fit-margin-bottom="0" />
  <path
     d="m 160.92513,86.609205 c -16.2613,-18.731 -57.7095,-49.7891 -80.308999,-62.86 -16.3822,-9.4753 -41.8742,-0.9677 -46.2146,25.2893 -2.6195,15.8494 -1.7853,41.7161 0.0269,59.819605 8.4983,-11.211905 22.6874,-15.850205 36.9037,-17.009305 11.2272,-0.9156 35.028299,0.0255 46.536999,-0.9014 16.1858,-1.3034 32.4331,-1.4276 43.056,-4.3382 z M 31.717431,144.72001 c -2.1118,-2.8131 -4.4941,-6.2229 -6.3357,-10.2373 -1.3834,-3.0155 -0.5012,-6.351 2.6642,-8.5898 3.185,-2.2524 6.7652,-3.9014 10.2824,-5.5891 1.8253,-0.8759 3.8024,-1.1188 5.7062,0.3203 2.1486,1.6245 4.4112,3.1082 6.4513,4.8671 1.819,1.5681 3.8376,1.7087 5.5993,0.5848 4.1573,-2.6521 7.8596,-5.9627 11.6722,-9.0904 0.7711,-0.6325 0.3759,-1.573 -0.6312,-1.575 -6.5401,-0.0133 -13.0816,0.1236 -19.6212,0.0329 -1.4751,-0.0204 -1.9153,-1.2529 -0.818,-2.1682 8.3219,-6.9421 21.0636,-10.4051 38.1149,-10.2628 21.080999,0.1757 39.188699,-0.5684 52.850499,-3.491805 3.166,-0.6774 3.4577,1.649505 2.3647,2.985805 -7.1337,8.721 -17.8396,15.3192 -28.8204,22.5275 19.7643,-4.7917 40.6686,-16.7619 60.7909,-29.975605 22.8056,-14.9757 46.6353,-34.4066 69.1603,-52.6203 9.9992,-8.0853 19.6345,-16.263 31.265,-21.0408 26.5518,-10.9074 45.7727,3.151 51.3553,30.4328 6.3399,30.9832 0.9663,62.478705 -3.977,93.719005 -5.3876,34.0475 -13.5862,64.4837 -23.4936,91.99 -4.924,13.6709 -9.2786,25.5118 -14.637,35.2377 -12.4633,22.6225 -35.2984,33.9718 -63.911,34.9651 26.6953,-34.4922 25.2488,-74.2705 1.9247,-107.8979 -15.2821,-22.0329 -38.5135,-40.6917 -76.0819,-51.3553 -29.5188,-8.3787 -68.562399,-10.2753 -102.843499,-9.3019 -5.9723,0.1695 -8.6346,2.1929 -9.0314,5.5332 z m 7.571,8.1298 c 24.2357,-2.1716 53.1522,-1.3244 72.292799,3.6626 15.5469,4.0507 17.1304,14.4085 11.9257,26.4045 17.9172,-9.9902 37.2073,-10.3751 55.7507,-0.4156 30.7051,16.4911 44.7533,44.3322 42.1596,77.9596 -2.4049,31.1788 -23.178,48.8012 -48.814,50.5678 -12.329,0.8495 -24.6665,0.464 -37.0046,-0.3288 -22.3495,-1.4366 -41.948199,-14.2132 -53.981499,-34.5393 -14.1067,-23.8281 -23.6379,-50.9565 -31.5497,-79.6553 -4.0362,-14.6412 -8.0418,-29.1041 -10.779,-43.6555 z m 87.015699,57.9812 c -5.7288,-16.5061 6.7442,-30.3964 24.3153,-28.1693 25.1935,3.1933 48.7403,27.2492 50.902,55.4899 2.2964,29.9985 -9.1856,51.4327 -26.928,57.4637 -10.6044,3.6048 -21.8763,2.3958 -28.1072,-0.3223 5.0015,-0.6993 9.2495,-1.673 12.9926,-4.0133 2.6025,-1.6268 1.4134,-3.8443 -1.5148,-3.651 -4.6775,0.3087 -9.358,0.8237 -14.0562,1.3691 -2.1155,0.2455 -3.1515,-1.438 -1.1809,-2.7383 0.8907,-0.5876 1.9106,-1.0919 2.5339,-1.9584 1.908,-2.6518 -0.39,-4.0244 -2.7558,-2.6555 -3.2077,1.8561 -6.7867,3.6343 -11.0982,4.403 -5.7447,1.0242 -15.6824,-2.508 -14.7113,-12.6164 7.3403,5.2447 13.3957,6.7005 22.2574,3.1785 7.4367,-2.9557 14.4073,-3.6624 21.5906,-1.4236 4.6794,1.4582 8.89,1.3663 12.1003,-1.1863 3.3729,-2.6815 6.8499,-5.3736 9.4904,-8.7786 6.3328,-8.1663 8.3902,-18.6786 7.4942,-31.081 -1.0296,-14.2458 -6.9826,-28.243 -23.9142,-39.1479 -8.6868,-5.5947 -19.6654,-9.1735 -28.8967,-5.2197 -7.8429,3.359 -8.1992,12.8489 -4.3886,18.9808 5.8357,9.3903 14.5401,13.0983 23.8757,12.4299 4.3974,-0.3149 7.6121,-2.3244 10.5417,-4.3631 -2.1435,5.2166 -6.9009,8.4787 -14.2588,8.4507 -15.2563,-0.0582 -29.0764,13.9124 -28.1115,21.9146 2.4503,-1.0026 4.9629,-1.0363 7.6904,0.053 3.3254,1.3283 6.0537,-0.0692 8.4473,-1.849 -1.654,3.5886 -2.9245,7.3992 0.4255,9.6786 4.5728,3.1113 4.6465,6.0315 4.3197,9.4904 -1.0143,-4.1854 -3.3557,-6.194 -7.0237,-6.0256 -4.2406,-8.873 -16.1104,-8.6687 -22.9161,-2.5158 2.4845,-6.9627 7.5574,-14.7072 11.908,-23.0632 3.5813,-6.8777 1.5767,-14.6336 -1.023,-22.1239 z M 235.38103,73.210405 c -12.7973,8.9238 -26.1689,19.1506 -37.1055,29.669105 -7.2148,6.9389 -9.6251,14.1358 -3.5419,22.7846 15.1486,21.5368 29.3267,40.892 38.2785,63.248 6.8947,17.2194 12.6955,33.7318 15.6931,50.5985 1.9713,-20.5764 -0.748,-40.9352 -7.5897,-61.7301 -5.6047,-17.0351 -15.6646,-30.9053 -22.432,-46.3819 -8.8614,-20.2657 -2.0639,-36.726205 16.6975,-58.188205 z M 50.868231,5.6543053 c 85.183699,-7.7338 168.802099,-7.3418 252.077999,0 24.8995,2.1948 43.2638,18.7638997 45.445,41.4625997 7.384,76.832005 8.3299,153.107505 0,229.988205 -2.4562,22.67 -20.5316,39.4361 -45.445,41.4626 -86.1806,7.0109 -171.9913,8.066 -252.077999,0 -24.8703,-2.5047 -43.7815999,-18.7194 -45.4449999,-41.4626 -5.61540004,-76.7713 -8.6854,-153.1228 0,-229.988205 2.5602,-22.6584 20.5514999,-39.2027997 45.4449999,-41.4625997 z"
     style="fill:#ffffff;fill-rule:evenodd"
     id="path10" />
</svg>
